<svg width="800" height="600" viewBox="0 0 800 600" fill="none" xmlns="http://www.w3.org/2000/svg">
  <!-- Light bulb puzzle in center -->
  <g transform="translate(350, 200)">
    <!-- Bulb outline -->
    <path d="M50 80 C50 35, 85 0, 130 0 C175 0, 210 35, 210 80 C210 110, 190 135, 170 150 L170 180 L90 180 L90 150 C70 135, 50 110, 50 80 Z" stroke="#333" stroke-width="3" fill="none"/>
    
    <!-- Puzzle pieces inside lightbulb -->
    <path d="M90 60 L120 60 L120 50 C120 45, 125 40, 130 40 C135 40, 140 45, 140 50 L140 60 L170 60 L170 90 L180 90 C185 90, 190 95, 190 100 C190 105, 185 110, 180 110 L170 110 L170 140 L140 140 L140 130 C140 125, 135 120, 130 120 C125 120, 120 125, 120 130 L120 140 L90 140 L90 110 L80 110 C75 110, 70 105, 70 100 C70 95, 75 90, 80 90 L90 90 Z" stroke="#333" stroke-width="2" fill="none"/>
    
    <!-- Base -->
    <rect x="90" y="180" width="80" height="30" stroke="#333" stroke-width="2" fill="none" rx="4"/>
    <rect x="100" y="210" width="60" height="10" stroke="#333" stroke-width="2" fill="none" rx="2"/>
  </g>
  
  <!-- Person on left -->
  <g transform="translate(100, 250)">
    <circle cx="30" cy="30" r="20" stroke="#333" stroke-width="2" fill="none"/>
    <path d="M30 50 L30 120 M10 80 L50 80 M30 120 L10 150 M30 120 L50 150" stroke="#333" stroke-width="2" stroke-linecap="round"/>
    <!-- Arms reaching toward bulb -->
    <path d="M50 80 Q100 60, 150 80" stroke="#333" stroke-width="2" fill="none"/>
  </g>
  
  <!-- Person on right -->
  <g transform="translate(600, 250)">
    <circle cx="30" cy="30" r="20" stroke="#333" stroke-width="2" fill="none"/>
    <path d="M30 50 L30 120 M10 80 L50 80 M30 120 L10 150 M30 120 L50 150" stroke="#333" stroke-width="2" stroke-linecap="round"/>
    <!-- Arms reaching toward bulb -->
    <path d="M10 80 Q-40 60, -90 80" stroke="#333" stroke-width="2" fill="none"/>
  </g>
  
  <!-- Collaboration arrows -->
  <path d="M250 300 L350 280" stroke="#4F46E5" stroke-width="2" marker-end="url(#arrowhead)" fill="none"/>
  <path d="M550 300 L450 280" stroke="#4F46E5" stroke-width="2" marker-end="url(#arrowhead)" fill="none"/>
  
  <!-- Arrow marker definition -->
  <defs>
    <marker id="arrowhead" markerWidth="10" markerHeight="7" refX="9" refY="3.5" orient="auto">
      <polygon points="0 0, 10 3.5, 0 7" fill="#4F46E5"/>
    </marker>
  </defs>
  
  <!-- Title -->
  <text x="400" y="100" text-anchor="middle" fill="#333" font-size="24" font-weight="bold" font-family="sans-serif">Collaborative Problem Solving</text>
  <text x="400" y="130" text-anchor="middle" fill="#666" font-size="16" font-family="sans-serif">Working together to unlock your potential</text>
</svg> 