<svg width="800" height="600" viewBox="0 0 800 600" fill="none" xmlns="http://www.w3.org/2000/svg">
  <!-- Teacher with pointer -->
  <path d="M250 150 C250 140, 260 130, 270 130 C280 130, 290 140, 290 150 L290 180 C285 185, 275 185, 270 185 C265 185, 255 185, 250 180 Z" stroke="#333" stroke-width="2" fill="none"/>
  <circle cx="270" cy="120" r="15" stroke="#333" stroke-width="2" fill="none"/>
  <path d="M270 185 L270 250 M250 200 L290 200 M270 250 L250 280 M270 250 L290 280" stroke="#333" stroke-width="2" stroke-linecap="round"/>
  
  <!-- Pointer/wand -->
  <path d="M290 200 L350 170" stroke="#333" stroke-width="2" stroke-linecap="round"/>
  
  <!-- Students sitting -->
  <circle cx="450" cy="220" r="12" stroke="#333" stroke-width="2" fill="none"/>
  <path d="M450 232 L450 270 M435 245 L465 245 M450 270 L440 290 M450 270 L460 290" stroke="#333" stroke-width="2" stroke-linecap="round"/>
  
  <circle cx="520" cy="220" r="12" stroke="#333" stroke-width="2" fill="none"/>
  <path d="M520 232 L520 270 M505 245 L535 245 M520 270 L510 290 M520 270 L530 290" stroke="#333" stroke-width="2" stroke-linecap="round"/>
  
  <circle cx="590" cy="220" r="12" stroke="#333" stroke-width="2" fill="none"/>
  <path d="M590 232 L590 270 M575 245 L605 245 M590 270 L580 290 M590 270 L600 290" stroke="#333" stroke-width="2" stroke-linecap="round"/>
  
  <!-- Chairs/desks -->
  <rect x="430" y="290" width="40" height="20" stroke="#333" stroke-width="2" fill="none"/>
  <rect x="500" y="290" width="40" height="20" stroke="#333" stroke-width="2" fill="none"/>
  <rect x="570" y="290" width="40" height="20" stroke="#333" stroke-width="2" fill="none"/>
  
  <!-- Whiteboard -->
  <rect x="200" y="80" width="200" height="120" stroke="#333" stroke-width="3" fill="none" rx="8"/>
  
  <!-- Some content on board -->
  <text x="300" y="120" text-anchor="middle" fill="#333" font-size="16" font-family="sans-serif">College Planning</text>
  <text x="300" y="140" text-anchor="middle" fill="#333" font-size="12" font-family="sans-serif">Your Future Starts Here</text>
</svg> 